<svg width="24" height="24" viewBox="0 0 24 24" fill="none" xmlns="http://www.w3.org/2000/svg">
<path d="M9 15.5H15V14H9V15.5ZM8.5 8.5C7.96667 8.5 7.47083 8.65 7.0125 8.95C6.55417 9.25 6.175 9.63333 5.875 10.1L7.125 10.925C7.29167 10.675 7.49167 10.4625 7.725 10.2875C7.95833 10.1125 8.21667 10.025 8.5 10.025C8.78333 10.025 9.04167 10.1125 9.275 10.2875C9.50833 10.4625 9.70833 10.6667 9.875 10.9L11.125 10.075C10.825 9.625 10.4458 9.25 9.9875 8.95C9.52917 8.65 9.03333 8.5 8.5 8.5ZM15.5 8.5C14.9667 8.5 14.4708 8.65 14.0125 8.95C13.5542 9.25 13.175 9.63333 12.875 10.1L14.125 10.925C14.2917 10.6917 14.4917 10.4875 14.725 10.3125C14.9583 10.1375 15.2167 10.05 15.5 10.05C15.7833 10.05 16.0458 10.1333 16.2875 10.3C16.5292 10.4667 16.725 10.675 16.875 10.925L18.125 10.1C17.825 9.63333 17.4458 9.25 16.9875 8.95C16.5292 8.65 16.0333 8.5 15.5 8.5ZM12 22C10.6167 22 9.31667 21.7375 8.1 21.2125C6.88333 20.6875 5.825 19.975 4.925 19.075C4.025 18.175 3.3125 17.1167 2.7875 15.9C2.2625 14.6833 2 13.3833 2 12C2 10.6167 2.2625 9.31667 2.7875 8.1C3.3125 6.88333 4.025 5.825 4.925 4.925C5.825 4.025 6.88333 3.3125 8.1 2.7875C9.31667 2.2625 10.6167 2 12 2C13.3833 2 14.6833 2.2625 15.9 2.7875C17.1167 3.3125 18.175 4.025 19.075 4.925C19.975 5.825 20.6875 6.88333 21.2125 8.1C21.7375 9.31667 22 10.6167 22 12C22 13.3833 21.7375 14.6833 21.2125 15.9C20.6875 17.1167 19.975 18.175 19.075 19.075C18.175 19.975 17.1167 20.6875 15.9 21.2125C14.6833 21.7375 13.3833 22 12 22ZM12 20C14.2333 20 16.125 19.225 17.675 17.675C19.225 16.125 20 14.2333 20 12C20 9.76667 19.225 7.875 17.675 6.325C16.125 4.775 14.2333 4 12 4C9.76667 4 7.875 4.775 6.325 6.325C4.775 7.875 4 9.76667 4 12C4 14.2333 4.775 16.125 6.325 17.675C7.875 19.225 9.76667 20 12 20Z" fill="#3E3E3E"/>
</svg>
